<svg width="48" height="49" viewBox="0 0 48 49" fill="none" xmlns="http://www.w3.org/2000/svg">
<g filter="url(#filter0_d_1615_79)">
<rect x="8" y="6.27271" width="32" height="32" rx="16" fill="white" shape-rendering="crispEdges"/>
<path d="M29.5 21.2727V18.2727" stroke="black" stroke-linecap="round" stroke-linejoin="round"/>
<path d="M31 19.7727H28" stroke="black" stroke-linecap="round" stroke-linejoin="round"/>
<path d="M26.5 15.7727V17.7727" stroke="black" stroke-linecap="round" stroke-linejoin="round"/>
<path d="M27.5 16.7727H25.5" stroke="black" stroke-linecap="round" stroke-linejoin="round"/>
<path d="M29.5437 23.8103C28.562 24.0855 27.5248 24.0946 26.5385 23.8364C25.5522 23.5782 24.6524 23.0622 23.9314 22.3413C23.2105 21.6204 22.6945 20.7205 22.4363 19.7342C22.1782 18.7479 22.1872 17.7107 22.4625 16.729C21.4946 16.9984 20.6143 17.5166 19.909 18.2321C19.2038 18.9477 18.6984 19.8354 18.4431 20.8071C18.1877 21.7787 18.1915 22.8003 18.4538 23.7701C18.7162 24.7398 19.228 25.6239 19.9384 26.3343C20.6488 27.0447 21.5329 27.5565 22.5026 27.8189C23.4724 28.0813 24.494 28.085 25.4656 27.8296C26.4373 27.5743 27.3251 27.0689 28.0406 26.3637C28.7561 25.6585 29.2743 24.7781 29.5437 23.8103Z" stroke="black" stroke-linecap="round" stroke-linejoin="round"/>
</g>
<defs>
<filter id="filter0_d_1615_79" x="0" y="0.272705" width="48" height="48" filterUnits="userSpaceOnUse" color-interpolation-filters="sRGB">
<feFlood flood-opacity="0" result="BackgroundImageFix"/>
<feColorMatrix in="SourceAlpha" type="matrix" values="0 0 0 0 0 0 0 0 0 0 0 0 0 0 0 0 0 0 127 0" result="hardAlpha"/>
<feOffset dy="2"/>
<feGaussianBlur stdDeviation="4"/>
<feComposite in2="hardAlpha" operator="out"/>
<feColorMatrix type="matrix" values="0 0 0 0 0 0 0 0 0 0 0 0 0 0 0 0 0 0 0.25 0"/>
<feBlend mode="normal" in2="BackgroundImageFix" result="effect1_dropShadow_1615_79"/>
<feBlend mode="normal" in="SourceGraphic" in2="effect1_dropShadow_1615_79" result="shape"/>
</filter>
</defs>
</svg>
